<?xml version="1.0" encoding="UTF-8"?>
<!DOCTYPE svg PUBLIC "-//W3C//DTD SVG 1.1//EN" "http://www.w3.org/Graphics/SVG/1.1/DTD/svg11.dtd">
<svg xmlns="http://www.w3.org/2000/svg" version="1.1" width="1020px" height="387px" style="shape-rendering:geometricPrecision; text-rendering:geometricPrecision; image-rendering:optimizeQuality; fill-rule:evenodd; clip-rule:evenodd" xmlns:xlink="http://www.w3.org/1999/xlink">
<g><path style="opacity:0.999" fill="#2d4261" d="M -0.5,-0.5 C 339.5,-0.5 679.5,-0.5 1019.5,-0.5C 1019.5,128.5 1019.5,257.5 1019.5,386.5C 679.5,386.5 339.5,386.5 -0.5,386.5C -0.5,257.5 -0.5,128.5 -0.5,-0.5 Z M 355.5,85.5 C 358.059,85.1984 360.393,85.5318 362.5,86.5C 342.375,162.211 322.042,237.877 301.5,313.5C 284.603,314.824 267.769,314.824 251,313.5C 238.942,262.932 226.108,212.599 212.5,162.5C 198.897,212.912 186.23,263.579 174.5,314.5C 157.256,314.825 140.09,314.492 123,313.5C 102.539,238.32 82.7053,162.987 63.5,87.5C 65.6353,85.631 68.3019,84.9644 71.5,85.5C 85.475,84.5908 99.475,84.2575 113.5,84.5C 124.422,135.52 136.589,186.186 150,236.5C 163.153,186.221 176.153,135.887 189,85.5C 196.924,84.8408 204.924,84.5074 213,84.5C 221.234,84.5168 229.234,85.1835 237,86.5C 249.214,137.358 262.048,188.025 275.5,238.5C 288.782,187.706 301.282,136.706 313,85.5C 327.114,84.2449 341.28,84.2449 355.5,85.5 Z M 376.5,141.5 C 376.5,122.833 376.5,104.167 376.5,85.5C 382.167,85.5 387.833,85.5 393.5,85.5C 404.419,84.5234 415.419,84.1901 426.5,84.5C 426.5,113.833 426.5,143.167 426.5,172.5C 457.167,172.5 487.833,172.5 518.5,172.5C 518.5,143.167 518.5,113.833 518.5,84.5C 535.5,84.5 552.5,84.5 569.5,84.5C 569.5,160.833 569.5,237.167 569.5,313.5C 552.5,313.5 535.5,313.5 518.5,313.5C 518.5,280.833 518.5,248.167 518.5,215.5C 487.833,215.5 457.167,215.5 426.5,215.5C 426.5,248.167 426.5,280.833 426.5,313.5C 409.5,313.5 392.5,313.5 375.5,313.5C 375.28,256.161 375.613,198.828 376.5,141.5 Z M 802.5,311.5 C 802.209,312.649 801.376,313.316 800,313.5C 783.524,312.536 767.024,312.203 750.5,312.5C 745.163,296.155 739.829,279.822 734.5,263.5C 705.492,263.167 676.492,263.5 647.5,264.5C 641.76,280.053 636.427,295.72 631.5,311.5C 614.402,312.824 597.402,312.824 580.5,311.5C 609.09,236.234 637.59,160.901 666,85.5C 674.591,84.8402 683.258,84.5068 692,84.5C 700.898,84.5153 709.565,85.182 718,86.5C 746.097,161.638 774.264,236.638 802.5,311.5 Z M 834.5,313.5 C 834.5,251.5 834.5,189.5 834.5,127.5C 811.5,127.5 788.5,127.5 765.5,127.5C 765.296,117.14 765.629,106.806 766.5,96.5C 766.5,92.8333 766.5,89.1667 766.5,85.5C 782.5,85.5 798.5,85.5 814.5,85.5C 860.827,84.6121 907.16,84.2788 953.5,84.5C 953.5,98.8333 953.5,113.167 953.5,127.5C 930.833,127.5 908.167,127.5 885.5,127.5C 885.5,189.5 885.5,251.5 885.5,313.5C 868.5,313.5 851.5,313.5 834.5,313.5 Z"/></g>
<g><path style="opacity:0.208" fill="#caced6" d="M 71.5,85.5 C 68.3019,84.9644 65.6353,85.631 63.5,87.5C 62.596,86.791 62.2627,85.791 62.5,84.5C 65.7131,84.19 68.7131,84.5233 71.5,85.5 Z"/></g>
<g><path style="opacity:0.035" fill="#bac3ca" d="M 355.5,85.5 C 358.024,84.1997 360.691,84.1997 363.5,85.5C 363.376,86.1067 363.043,86.44 362.5,86.5C 360.393,85.5318 358.059,85.1984 355.5,85.5 Z"/></g>
<g><path style="opacity:0.169" fill="#bfc6ce" d="M 814.5,85.5 C 798.5,85.5 782.5,85.5 766.5,85.5C 766.5,89.1667 766.5,92.8333 766.5,96.5C 765.517,92.7016 765.183,88.7016 765.5,84.5C 782.009,84.1702 798.342,84.5036 814.5,85.5 Z"/></g>
<g><path style="opacity:0.235" fill="#adb5bf" d="M 393.5,85.5 C 387.833,85.5 382.167,85.5 376.5,85.5C 376.5,104.167 376.5,122.833 376.5,141.5C 375.503,122.674 375.17,103.674 375.5,84.5C 381.69,84.1771 387.69,84.5104 393.5,85.5 Z"/></g>
<g><path style="opacity:0.994" fill="#334665" d="M 690.5,143.5 C 691.376,143.369 692.043,143.702 692.5,144.5C 702.307,170.922 711.307,197.589 719.5,224.5C 700.5,224.5 681.5,224.5 662.5,224.5C 671.035,197.229 680.368,170.229 690.5,143.5 Z"/></g>
<g><path style="opacity:0.484" fill="#6b7a90" d="M 765.5,127.5 C 788.5,127.5 811.5,127.5 834.5,127.5C 834.5,189.5 834.5,251.5 834.5,313.5C 833.501,252.002 833.168,190.336 833.5,128.5C 810.661,128.831 787.994,128.497 765.5,127.5 Z"/></g>
<g><path style="opacity:0.09" fill="#f9fafb" d="M 580.5,311.5 C 597.402,312.824 614.402,312.824 631.5,311.5C 623.193,312.831 614.527,313.498 605.5,313.5C 596.833,313.167 588.167,312.833 579.5,312.5C 579.624,311.893 579.957,311.56 580.5,311.5 Z"/></g>
<g><path style="opacity:0.999" fill="#aab3bf" d="M 802.5,311.5 C 803.404,312.209 803.737,313.209 803.5,314.5C 785.468,315.153 767.802,314.486 750.5,312.5C 767.024,312.203 783.524,312.536 800,313.5C 801.376,313.316 802.209,312.649 802.5,311.5 Z"/></g>
</svg>
